<?xml version="1.0" encoding="UTF-8" standalone="no"?>
<svg
   xmlns:dc="http://purl.org/dc/elements/1.1/"
   xmlns:cc="http://creativecommons.org/ns#"
   xmlns:rdf="http://www.w3.org/1999/02/22-rdf-syntax-ns#"
   xmlns:svg="http://www.w3.org/2000/svg"
   xmlns="http://www.w3.org/2000/svg"
   xmlns:xlink="http://www.w3.org/1999/xlink"
   xmlns:sodipodi="http://sodipodi.sourceforge.net/DTD/sodipodi-0.dtd"
   xmlns:inkscape="http://www.inkscape.org/namespaces/inkscape"
   width="95mm"
   height="95mm"
   viewBox="0 0 95 95"
   version="1.1"
   id="svg4850"
   inkscape:version="1.0.2 (e86c870879, 2021-01-15)"
   sodipodi:docname="iosqueak.svg"
   inkscape:export-filename="/home/jason/MPM Nextcloud/Core Shared/Design/Logos/IOSqueak/iosqueak.png"
   inkscape:export-xdpi="213.89"
   inkscape:export-ydpi="213.89">
  <defs
     id="defs4844">
    <radialGradient
       inkscape:collect="always"
       xlink:href="#linearGradient4474"
       id="radialGradient4354"
       gradientUnits="userSpaceOnUse"
       gradientTransform="matrix(0.6248329,0,0,0.40320747,41.775008,521.00962)"
       cx="129.46642"
       cy="845.96002"
       fx="129.46642"
       fy="845.96002"
       r="34.693336" />
    <linearGradient
       id="linearGradient4474">
      <stop
         style="stop-color:#f1cbcb;stop-opacity:1;"
         offset="0"
         id="stop4476" />
      <stop
         style="stop-color:#de8787;stop-opacity:1;"
         offset="1"
         id="stop4478" />
    </linearGradient>
    <linearGradient
       id="linearGradient4496">
      <stop
         style="stop-color:#ffeda5;stop-opacity:1;"
         offset="0"
         id="stop4498" />
      <stop
         style="stop-color:#ffcb05;stop-opacity:1;"
         offset="1"
         id="stop4500" />
    </linearGradient>
    <radialGradient
       inkscape:collect="always"
       xlink:href="#linearGradient4496"
       id="radialGradient5451"
       cx="315.315"
       cy="266.62802"
       fx="315.315"
       fy="266.62802"
       r="45.269531"
       gradientTransform="matrix(1,0,0,0.96971266,0,8.4827377)"
       gradientUnits="userSpaceOnUse" />
    <radialGradient
       inkscape:collect="always"
       xlink:href="#linearGradient4496"
       id="radialGradient5499"
       cx="321.6857"
       cy="233.72484"
       fx="321.6857"
       fy="233.72484"
       r="192.42871"
       gradientTransform="matrix(0.31078671,0,0,0.28769971,-20.248846,-15.452045)"
       gradientUnits="userSpaceOnUse" />
  </defs>
  <sodipodi:namedview
     id="base"
     pagecolor="#ffffff"
     bordercolor="#666666"
     borderopacity="1.0"
     inkscape:pageopacity="0.0"
     inkscape:pageshadow="2"
     inkscape:zoom="1.4"
     inkscape:cx="175.11525"
     inkscape:cy="130.71907"
     inkscape:document-units="mm"
     inkscape:current-layer="g1073"
     showgrid="false"
     inkscape:snap-global="false"
     inkscape:window-width="1920"
     inkscape:window-height="1016"
     inkscape:window-x="0"
     inkscape:window-y="27"
     inkscape:window-maximized="1"
     fit-margin-top="5"
     fit-margin-left="5"
     fit-margin-right="5"
     fit-margin-bottom="5"
     inkscape:document-rotation="0" />
  <metadata
     id="metadata4847">
    <rdf:RDF>
      <cc:Work
         rdf:about="">
        <dc:format>image/svg+xml</dc:format>
        <dc:type
           rdf:resource="http://purl.org/dc/dcmitype/StillImage" />
        <dc:title />
      </cc:Work>
    </rdf:RDF>
  </metadata>
  <g
     inkscape:label="Logo"
     inkscape:groupmode="layer"
     id="layer1"
     transform="translate(-14.971964,-12.225038)">
    <path
       style="fill:url(#radialGradient5499);fill-opacity:1;stroke:#000000;stroke-width:1;stroke-linecap:round;stroke-linejoin:round;stroke-miterlimit:4;stroke-dasharray:none;stroke-opacity:1"
       d="M 86.329061,28.248048 C 80.48865,28.638814 71.37846,28.802289 63.58742,29.753215 41.768797,32.416262 26.452423,29.126719 26.452423,51.960922 c 0,22.252879 2.81304,15.993993 36.824385,21.28008 13.932746,2.165446 15.617613,2.598013 25.265319,1.812029 2.470046,5.769407 2.527233,13.394788 -7.36889,9.959724 15.652426,11.127187 15.944592,-8.586436 14.331818,-12.002318 6.521095,-7.2282 5.703415,-12.286699 5.094165,-20.638026 C 99.331843,34.999825 98.111253,27.459733 86.329061,28.248048 Z"
       id="path5437"
       inkscape:connector-curvature="0"
       inkscape:transform-center-x="11.122033"
       inkscape:transform-center-y="22.64102"
       sodipodi:nodetypes="sssscccss" />
    <g
       style="display:inline"
       transform="matrix(0.55364196,0,0,0.55364196,2.3105201,-424.91854)"
       id="g4317">
      <path
         inkscape:connector-curvature="0"
         id="path4331"
         d="m 133.59512,854.66335 c 1.53147,-1.40924 22.16832,-31.95683 58.4857,-35.05722"
         style="fill:none;stroke:#000000;stroke-width:1px;stroke-linecap:butt;stroke-linejoin:miter;stroke-opacity:1"
         sodipodi:nodetypes="cc" />
      <path
         inkscape:connector-curvature="0"
         id="path4333"
         d="m 135.79388,859.87475 c 6.30754,-6.15221 39.1669,-17.6581 52.49554,-17.44918"
         style="fill:none;stroke:#000000;stroke-width:1px;stroke-linecap:butt;stroke-linejoin:miter;stroke-opacity:1"
         sodipodi:nodetypes="cc" />
      <path
         inkscape:connector-curvature="0"
         id="path4335"
         d="m 131.74739,872.00237 c 4.88772,-0.6221 27.96188,-0.40394 46.05776,13.08671"
         style="fill:none;stroke:#000000;stroke-width:1px;stroke-linecap:butt;stroke-linejoin:miter;stroke-opacity:1"
         sodipodi:nodetypes="cc" />
      <path
         inkscape:connector-curvature="0"
         id="path4337"
         d="m 126.44151,879.19335 c 3.81587,0.36699 11.65197,-1.04335 34.58604,21.37131"
         style="fill:none;stroke:#000000;stroke-width:1px;stroke-linecap:butt;stroke-linejoin:miter;stroke-opacity:1"
         sodipodi:nodetypes="cc" />
      <path
         inkscape:connector-curvature="0"
         id="path4339"
         d="m 89.129197,853.25016 c 0,0 -20.323783,-24.04791 -61.068098,-33.0222"
         style="fill:none;stroke:#000000;stroke-width:1px;stroke-linecap:butt;stroke-linejoin:miter;stroke-opacity:1"
         sodipodi:nodetypes="cc" />
      <path
         inkscape:connector-curvature="0"
         id="path4342"
         d="m 85.152648,859.0589 c 0,0 -46.335025,-22.05301 -59.77147,-17.0411"
         style="fill:none;stroke:#000000;stroke-width:1px;stroke-linecap:butt;stroke-linejoin:miter;stroke-opacity:1"
         sodipodi:nodetypes="cc" />
      <path
         inkscape:connector-curvature="0"
         id="path4344"
         d="m 88.342144,873.97453 c -7.840569,0.85825 -24.530907,1.32617 -52.284502,18.93379"
         style="fill:none;stroke:#000000;stroke-width:1px;stroke-linecap:butt;stroke-linejoin:miter;stroke-opacity:1"
         sodipodi:nodetypes="cc" />
      <path
         sodipodi:nodetypes="cc"
         inkscape:connector-curvature="0"
         id="path4346"
         d="m 94.885412,879.74865 c -11.346553,5.22048 -15.982534,2.83771 -32.183307,24.17111"
         style="fill:none;stroke:#000000;stroke-width:1px;stroke-linecap:butt;stroke-linejoin:miter;stroke-opacity:1" />
      <path
         inkscape:connector-curvature="0"
         id="path4350"
         d="m 85.788737,866.6535 c 0,0 -27.787633,-6.1538 -56.770079,-0.31906"
         style="display:inline;fill:none;stroke:#000000;stroke-width:1px;stroke-linecap:butt;stroke-linejoin:miter;stroke-opacity:1"
         sodipodi:nodetypes="cc" />
      <path
         inkscape:connector-curvature="0"
         id="path4352"
         d="m 133.47432,866.4164 c 5.67321,-2.19792 19.43311,-6.65277 51.41738,1.08115"
         style="display:inline;fill:none;stroke:#000000;stroke-width:1px;stroke-linecap:butt;stroke-linejoin:miter;stroke-opacity:1"
         sodipodi:nodetypes="cc" />
      <path
         style="fill:url(#radialGradient4354);fill-opacity:1;stroke:#000000;stroke-width:1.80622148;stroke-linecap:butt;stroke-linejoin:miter;stroke-miterlimit:4;stroke-dasharray:none;stroke-opacity:1"
         d="m 90.104257,857.49054 c 22.721963,-8.29533 41.115933,0.72133 41.115933,0.72133 0.0529,13.14654 -8.01136,20.27967 -21.2793,19.11529 -14.08195,1.54078 -21.454584,-6.35756 -19.836633,-19.83662 z"
         id="path4348"
         inkscape:connector-curvature="0"
         sodipodi:nodetypes="cccc" />
      <ellipse
         ry="1.6675248"
         rx="3.1834567"
         cy="871.64758"
         cx="103.14848"
         id="path4390"
         style="color:#000000;clip-rule:nonzero;display:inline;overflow:visible;visibility:visible;opacity:1;isolation:auto;mix-blend-mode:normal;color-interpolation:sRGB;color-interpolation-filters:linearRGB;solid-color:#000000;solid-opacity:1;fill:#d56666;fill-opacity:1;fill-rule:evenodd;stroke:none;stroke-width:2.1701467;stroke-linecap:round;stroke-linejoin:miter;stroke-miterlimit:4;stroke-dasharray:none;stroke-dashoffset:0;stroke-opacity:1;paint-order:normal;color-rendering:auto;image-rendering:auto;shape-rendering:auto;text-rendering:auto;enable-background:accumulate" />
      <ellipse
         ry="1.6675248"
         rx="3.1834567"
         cy="871.49597"
         cx="116.03389"
         id="path4390-7"
         style="color:#000000;clip-rule:nonzero;display:inline;overflow:visible;visibility:visible;opacity:1;isolation:auto;mix-blend-mode:normal;color-interpolation:sRGB;color-interpolation-filters:linearRGB;solid-color:#000000;solid-opacity:1;fill:#d56666;fill-opacity:1;fill-rule:evenodd;stroke:none;stroke-width:2.1701467;stroke-linecap:round;stroke-linejoin:miter;stroke-miterlimit:4;stroke-dasharray:none;stroke-dashoffset:0;stroke-opacity:1;paint-order:normal;color-rendering:auto;image-rendering:auto;shape-rendering:auto;text-rendering:auto;enable-background:accumulate" />
    </g>
    <g
       id="g1073"
       transform="matrix(1.5480718,0,0,1.5480718,-3.1667293,-72.936463)">
      <g
         aria-label="I"
         id="text5527-9"
         style="font-style:normal;font-variant:normal;font-weight:bold;font-stretch:semi-condensed;font-size:8.76406px;line-height:1.25;font-family:Monoid;-inkscape-font-specification:'Monoid, Bold Semi-Condensed';font-variant-ligatures:normal;font-variant-caps:normal;font-variant-numeric:normal;font-feature-settings:normal;text-align:start;letter-spacing:0px;word-spacing:0px;writing-mode:lr-tb;text-anchor:start;fill:#000000;fill-opacity:1;stroke:none;stroke-width:0.657292">
        <path
           d="m 22.432724,97.713608 v 1.369384 h -1.460676 v 5.294958 h 1.460676 v 1.36938 h -4.38203 v -1.36938 h 1.460677 v -5.294958 h -1.460677 v -1.369384 z"
           style="font-style:normal;font-variant:normal;font-weight:bold;font-stretch:semi-condensed;font-size:8.76406px;font-family:Monoid;-inkscape-font-specification:'Monoid, Bold Semi-Condensed';font-variant-ligatures:normal;font-variant-caps:normal;font-variant-numeric:normal;font-feature-settings:normal;text-align:start;writing-mode:lr-tb;text-anchor:start;stroke-width:0.657292"
           id="path880" />
      </g>
      <g
         aria-label="O"
         id="text5527-9-4"
         style="font-style:normal;font-variant:normal;font-weight:bold;font-stretch:semi-condensed;font-size:8.76406px;line-height:1.25;font-family:Monoid;-inkscape-font-specification:'Monoid, Bold Semi-Condensed';font-variant-ligatures:normal;font-variant-caps:normal;font-variant-numeric:normal;font-feature-settings:normal;text-align:start;letter-spacing:0px;word-spacing:0px;writing-mode:lr-tb;text-anchor:start;fill:#000000;fill-opacity:1;stroke:none;stroke-width:0.657292">
        <path
           d="m 24.151076,100.25838 q -0.08559,0.46787 -0.08559,1.47209 0,1.00421 0.08559,1.47209 0.102704,0.55346 0.376581,0.91292 0.279582,0.35376 0.724632,0.35376 0.44505,0 0.718927,-0.35376 0.279583,-0.35946 0.382287,-0.91292 0.08559,-0.47358 0.08559,-1.47209 0,-1.00422 -0.08559,-1.47209 -0.102704,-0.553459 -0.382287,-0.907216 -0.273877,-0.359464 -0.718927,-0.359464 -0.44505,0 -0.724632,0.359464 -0.273877,0.353757 -0.376581,0.907216 z m -1.386502,3.4634 q -0.159761,-0.63334 -0.159761,-1.99131 0,-1.35797 0.159761,-1.991314 0.228231,-0.924335 0.861571,-1.517735 0.633341,-0.599105 1.626144,-0.599105 0.992804,0 1.626144,0.599105 0.633341,0.5934 0.861571,1.517735 0.159762,0.633344 0.159762,1.991314 0,1.35797 -0.159762,1.99131 -0.22823,0.92434 -0.861571,1.52344 -0.63334,0.5934 -1.626144,0.5934 -0.992803,0 -1.626144,-0.5934 -0.63334,-0.5991 -0.861571,-1.52344 z"
           style="font-style:normal;font-variant:normal;font-weight:bold;font-stretch:semi-condensed;font-size:8.76406px;font-family:Monoid;-inkscape-font-specification:'Monoid, Bold Semi-Condensed';font-variant-ligatures:normal;font-variant-caps:normal;font-variant-numeric:normal;font-feature-settings:normal;text-align:start;writing-mode:lr-tb;text-anchor:start;stroke-width:0.657292"
           id="path883" />
      </g>
      <g
         aria-label="S"
         id="text5527-9-4-9"
         style="font-style:normal;font-variant:normal;font-weight:bold;font-stretch:semi-condensed;font-size:8.76406px;line-height:1.25;font-family:Monoid;-inkscape-font-specification:'Monoid, Bold Semi-Condensed';font-variant-ligatures:normal;font-variant-caps:normal;font-variant-numeric:normal;font-feature-settings:normal;text-align:start;letter-spacing:0px;word-spacing:0px;writing-mode:lr-tb;text-anchor:start;fill:#000000;fill-opacity:1;stroke:none;stroke-width:0.657292">
        <path
           d="m 30.28652,105.83862 q -0.935746,0 -2.111134,-0.18258 v -1.39221 q 1.37509,0.20541 2.111134,0.20541 1.015627,0 1.015627,-1.0841 0,-0.3024 -0.14835,-0.57058 -0.142644,-0.27387 -0.40511,-0.37658 -0.165467,-0.0628 -0.456461,-0.1027 -0.290994,-0.0399 -0.599106,-0.11412 -0.302406,-0.0799 -0.581988,-0.24534 -1.072685,-0.63905 -1.072685,-2.019845 0,-0.987098 0.627635,-1.660379 0.63334,-0.67328 1.620438,-0.67328 0.770279,0 2.111134,0.142644 v 1.37509 Q 31.011153,98.9917 30.28652,98.9917 q -0.216819,0 -0.382286,0.097 -0.159762,0.097 -0.245349,0.251054 -0.08559,0.154056 -0.125526,0.313817 -0.03424,0.159762 -0.03424,0.313817 0,0.673284 0.456461,0.878684 0.14835,0.0685 0.673281,0.15406 0.530637,0.0799 0.855865,0.25105 0.456462,0.23394 0.753162,0.60482 0.2967,0.37087 0.410815,0.74745 0.114115,0.37658 0.114115,0.78169 0,1.10692 -0.684692,1.7802 -0.684692,0.67328 -1.791611,0.67328 z"
           style="font-style:normal;font-variant:normal;font-weight:bold;font-stretch:semi-condensed;font-size:8.76406px;font-family:Monoid;-inkscape-font-specification:'Monoid, Bold Semi-Condensed';font-variant-ligatures:normal;font-variant-caps:normal;font-variant-numeric:normal;font-feature-settings:normal;text-align:start;writing-mode:lr-tb;text-anchor:start;stroke-width:0.657292"
           id="path886" />
      </g>
      <g
         aria-label="q"
         id="text5527-9-4-9-5"
         style="font-style:normal;font-variant:normal;font-weight:bold;font-stretch:semi-condensed;font-size:8.76406px;line-height:1.25;font-family:Monoid;-inkscape-font-specification:'Monoid, Bold Semi-Condensed';font-variant-ligatures:normal;font-variant-caps:normal;font-variant-numeric:normal;font-feature-settings:normal;text-align:start;letter-spacing:0px;word-spacing:0px;writing-mode:lr-tb;text-anchor:start;fill:#000000;fill-opacity:1;stroke:none;stroke-width:0.657292">
        <path
           d="m 34.310004,97.622314 q 0.66187,0 0.952864,0.462167 h 0.04565 v -0.370875 h 1.460677 v 8.033724 h -1.460677 v -2.56189 h -0.04565 q -0.290994,0.46216 -0.952864,0.46216 -0.433638,0 -0.770278,-0.35375 -0.330935,-0.35947 -0.484991,-0.99851 -0.119821,-0.51352 -0.119821,-1.66038 0,-1.14686 0.119821,-1.660379 0.154056,-0.639046 0.484991,-0.992804 0.33664,-0.359463 0.770278,-0.359463 z m 0.793102,1.546263 q -0.102704,-0.176879 -0.251054,-0.176879 -0.14835,0 -0.251053,0.176879 -0.102704,0.171173 -0.14835,0.433638 -0.05706,0.308112 -0.05706,1.032745 0,0.72463 0.05706,1.03274 0.04565,0.26247 0.14835,0.43935 0.102703,0.17117 0.251053,0.17117 0.14835,0 0.251054,-0.17117 0.102704,-0.17688 0.14835,-0.43935 0.05706,-0.30811 0.05706,-1.03274 0,-0.724633 -0.05706,-1.032745 -0.04565,-0.262465 -0.14835,-0.433638 z"
           style="font-style:normal;font-variant:normal;font-weight:bold;font-stretch:semi-condensed;font-size:8.76406px;font-family:Monoid;-inkscape-font-specification:'Monoid, Bold Semi-Condensed';font-variant-ligatures:normal;font-variant-caps:normal;font-variant-numeric:normal;font-feature-settings:normal;text-align:start;writing-mode:lr-tb;text-anchor:start;stroke-width:0.657292"
           id="path889" />
      </g>
      <g
         aria-label="u"
         id="text5527-9-4-9-5-9"
         style="font-style:normal;font-variant:normal;font-weight:bold;font-stretch:semi-condensed;font-size:8.76406px;line-height:1.25;font-family:Monoid;-inkscape-font-specification:'Monoid, Bold Semi-Condensed';font-variant-ligatures:normal;font-variant-caps:normal;font-variant-numeric:normal;font-feature-settings:normal;text-align:start;letter-spacing:0px;word-spacing:0px;writing-mode:lr-tb;text-anchor:start;fill:#000000;fill-opacity:1;stroke:none;stroke-width:0.657292">
        <path
           d="m 38.77154,103.55631 q -0.610517,0 -0.987098,-0.61052 -0.136939,-0.22823 -0.211114,-0.52493 -0.06847,-0.2967 -0.07988,-0.49069 -0.0057,-0.1997 -0.0057,-0.55917 v -3.748687 h 1.460677 V 101.371 q 0,0.46217 0.08559,0.62193 0.10841,0.194 0.279583,0.194 0.171173,0 0.279582,-0.194 0.08559,-0.15976 0.08559,-0.62193 v -3.748687 h 1.460677 v 5.842707 h -1.460677 v -0.35376 h -0.03994 q -0.159762,0.20541 -0.393698,0.32523 -0.233937,0.11982 -0.473579,0.11982 z"
           style="font-style:normal;font-variant:normal;font-weight:bold;font-stretch:semi-condensed;font-size:8.76406px;font-family:Monoid;-inkscape-font-specification:'Monoid, Bold Semi-Condensed';font-variant-ligatures:normal;font-variant-caps:normal;font-variant-numeric:normal;font-feature-settings:normal;text-align:start;writing-mode:lr-tb;text-anchor:start;stroke-width:0.657292"
           id="path892" />
      </g>
      <g
         aria-label="e"
         id="text5527-9-4-9-5-2"
         style="font-style:normal;font-variant:normal;font-weight:bold;font-stretch:semi-condensed;font-size:8.76406px;line-height:1.25;font-family:Monoid;-inkscape-font-specification:'Monoid, Bold Semi-Condensed';font-variant-ligatures:normal;font-variant-caps:normal;font-variant-numeric:normal;font-feature-settings:normal;text-align:start;letter-spacing:0px;word-spacing:0px;writing-mode:lr-tb;text-anchor:start;fill:#000000;fill-opacity:1;stroke:none;stroke-width:0.657292">
        <path
           d="m 43.715489,97.622314 q 0.661869,0 1.129742,0.325228 0.467873,0.319523 0.667575,0.821631 0.097,0.245348 0.142644,0.576283 0.05135,0.330934 0.05706,0.587694 0.01141,0.25105 0.01141,0.70181 v 0.68469 h -2.550478 q 0,0.46787 0.08559,0.65616 0.14835,0.30241 0.570576,0.30241 0.621929,0 1.711731,-0.11411 v 1.36367 q -1.03845,0.11982 -1.711731,0.11982 -0.707515,0 -1.192505,-0.33093 -0.48499,-0.33093 -0.70181,-0.86157 -0.14835,-0.35946 -0.18829,-0.77028 -0.03994,-0.41081 -0.03994,-1.04986 0,-0.656164 0.03423,-1.078391 0.03994,-0.427933 0.176879,-0.787396 0.18829,-0.507813 0.656163,-0.827336 0.473579,-0.319523 1.141154,-0.319523 z m 0,1.369384 q -0.097,0 -0.176879,0.02282 -0.07988,0.01712 -0.136938,0.07417 -0.05135,0.05135 -0.09129,0.097 -0.03994,0.03994 -0.06847,0.142644 -0.02282,0.097 -0.03994,0.154056 -0.01141,0.05706 -0.02282,0.193996 -0.0057,0.131233 -0.0057,0.188291 0,0.05135 -0.0057,0.199699 h 1.095508 q -0.01141,-0.587692 -0.09129,-0.775982 -0.114115,-0.2967 -0.456461,-0.2967 z"
           style="font-style:normal;font-variant:normal;font-weight:bold;font-stretch:semi-condensed;font-size:8.76406px;font-family:Monoid;-inkscape-font-specification:'Monoid, Bold Semi-Condensed';font-variant-ligatures:normal;font-variant-caps:normal;font-variant-numeric:normal;font-feature-settings:normal;text-align:start;writing-mode:lr-tb;text-anchor:start;stroke-width:0.657292"
           id="path895" />
      </g>
      <g
         aria-label="a"
         id="text5527-9-4-9-5-2-7"
         style="font-style:normal;font-variant:normal;font-weight:bold;font-stretch:semi-condensed;font-size:8.76406px;line-height:1.25;font-family:Monoid;-inkscape-font-specification:'Monoid, Bold Semi-Condensed';font-variant-ligatures:normal;font-variant-caps:normal;font-variant-numeric:normal;font-feature-settings:normal;text-align:start;letter-spacing:0px;word-spacing:0px;writing-mode:lr-tb;text-anchor:start;fill:#000000;fill-opacity:1;stroke:none;stroke-width:0.657292">
        <path
           d="m 48.464691,101.15418 h -0.387992 q -0.279582,0 -0.405109,0.16547 -0.119822,0.15976 -0.119822,0.50781 0,0.194 0.09129,0.32523 0.09129,0.12553 0.262465,0.12553 0.193996,0 0.313817,-0.097 0.125527,-0.097 0.171173,-0.27387 0.05135,-0.18259 0.06276,-0.30812 0.01141,-0.12552 0.01141,-0.31381 z m -0.182584,-3.531866 q 0.490696,0 0.861571,0.154055 0.370875,0.14835 0.610517,0.570577 0.171173,0.302406 0.171173,0.935746 v 4.273618 h -1.460677 v -0.3024 h -0.05706 q -0.319523,0.39369 -0.810219,0.39369 -0.604812,0 -1.055567,-0.51922 -0.450756,-0.51922 -0.450756,-1.2895 0,-0.83875 0.502107,-1.3808 0.182585,-0.194 0.387993,-0.31382 0.211113,-0.12552 0.427932,-0.17117 0.222525,-0.04565 0.353758,-0.05706 0.136938,-0.01141 0.325229,-0.01141 h 0.37658 v -0.5934 q 0,-0.114115 -0.097,-0.211113 -0.097,-0.102704 -0.251053,-0.102704 -0.524931,0 -1.477794,0.108409 v -1.37509 q 0.941451,-0.108409 1.643261,-0.108409 z"
           style="font-style:normal;font-variant:normal;font-weight:bold;font-stretch:semi-condensed;font-size:8.76406px;font-family:Monoid;-inkscape-font-specification:'Monoid, Bold Semi-Condensed';font-variant-ligatures:normal;font-variant-caps:normal;font-variant-numeric:normal;font-feature-settings:normal;text-align:start;writing-mode:lr-tb;text-anchor:start;stroke-width:0.657292"
           id="path898" />
      </g>
      <g
         aria-label="k"
         id="text5527-9-4-9-5-2-7-2"
         style="font-style:normal;font-variant:normal;font-weight:bold;font-stretch:semi-condensed;font-size:8.76406px;line-height:1.25;font-family:Monoid;-inkscape-font-specification:'Monoid, Bold Semi-Condensed';font-variant-ligatures:normal;font-variant-caps:normal;font-variant-numeric:normal;font-feature-settings:normal;text-align:start;letter-spacing:0px;word-spacing:0px;writing-mode:lr-tb;text-anchor:start;fill:#000000;fill-opacity:1;stroke:none;stroke-width:0.657292">
        <path
           d="M 51.987077,105.65604 H 50.5264 v -8.033725 h 1.460677 v 4.056805 l 0.952863,-1.86579 h 1.574792 l -1.295209,2.52766 1.56338,3.31505 h -1.574792 l -0.952863,-2.01414 -0.268171,0.55917 z"
           style="font-style:normal;font-variant:normal;font-weight:bold;font-stretch:semi-condensed;font-size:8.76406px;font-family:Monoid;-inkscape-font-specification:'Monoid, Bold Semi-Condensed';font-variant-ligatures:normal;font-variant-caps:normal;font-variant-numeric:normal;font-feature-settings:normal;text-align:start;writing-mode:lr-tb;text-anchor:start;stroke-width:0.657292"
           id="path901" />
      </g>
    </g>
  </g>
  <g
     inkscape:groupmode="layer"
     id="layer4"
     inkscape:label="Text"
     transform="translate(-14.971964,-12.225038)" />
</svg>
